<?xml version="1.0" encoding="UTF-8" standalone="no"?>
<!DOCTYPE svg PUBLIC "-//W3C//DTD SVG 1.1//EN"
 "http://www.w3.org/Graphics/SVG/1.1/DTD/svg11.dtd">
<!-- Generated by graphviz version 2.43.0 (0)
 -->
<!-- Title: VLFM Pages: 1 -->
<svg width="692pt" height="898pt"
 viewBox="0.00 0.00 692.00 898.00" xmlns="http://www.w3.org/2000/svg" xmlns:xlink="http://www.w3.org/1999/xlink">
<g id="graph0" class="graph" transform="scale(1 1) rotate(0) translate(4 894)">
<title>VLFM</title>
<polygon fill="white" stroke="transparent" points="-4,4 -4,-894 688,-894 688,4 -4,4"/>
<text text-anchor="middle" x="342" y="-874" font-family="Noto Sans CJK SC" font-size="15.00">VLFM 零样本目标物体导航 · 单步处理架构</text>
<g id="clust1" class="cluster">
<title>cluster_input</title>
<path fill="#eaf2fb" stroke="#3b6ea5" d="M338,-783C338,-783 664,-783 664,-783 670,-783 676,-789 676,-795 676,-795 676,-845 676,-845 676,-851 670,-857 664,-857 664,-857 338,-857 338,-857 332,-857 326,-851 326,-845 326,-845 326,-795 326,-795 326,-789 332,-783 338,-783"/>
<text text-anchor="middle" x="501" y="-842.6" font-family="Noto Sans CJK SC" font-size="13.00">① 每步传感器输入</text>
</g>
<g id="clust3" class="cluster">
<title>cluster_perc</title>
<path fill="#f7f7f2" stroke="#8a8a66" d="M52,-389C52,-389 462,-389 462,-389 468,-389 474,-395 474,-401 474,-401 474,-750 474,-750 474,-756 468,-762 462,-762 462,-762 52,-762 52,-762 46,-762 40,-756 40,-750 40,-750 40,-401 40,-401 40,-395 46,-389 52,-389"/>
<text text-anchor="middle" x="257" y="-747.6" font-family="Noto Sans CJK SC" font-size="13.00">② 感知与建图（三条线并行）</text>
</g>
<g id="clust4" class="cluster">
<title>cluster_b1</title>
<path fill="white" stroke="#7ba86b" stroke-width="1.4" stroke-dasharray="5,2" d="M130,-567C130,-567 256,-567 256,-567 262,-567 268,-573 268,-579 268,-579 268,-720 268,-720 268,-726 262,-732 256,-732 256,-732 130,-732 130,-732 124,-732 118,-726 118,-720 118,-720 118,-579 118,-579 118,-573 124,-567 130,-567"/>
<text text-anchor="middle" x="193" y="-719.2" font-family="Noto Sans CJK SC" font-size="11.00" fill="#5e8a4e">几何线</text>
</g>
<g id="clust5" class="cluster">
<title>cluster_b2</title>
<path fill="white" stroke="#d98a2b" stroke-width="1.8" stroke-dasharray="5,2" d="M288,-474C288,-474 454,-474 454,-474 460,-474 466,-480 466,-486 466,-486 466,-627 466,-627 466,-633 460,-639 454,-639 454,-639 288,-639 288,-639 282,-639 276,-633 276,-627 276,-627 276,-486 276,-486 276,-480 282,-474 288,-474"/>
<text text-anchor="middle" x="371" y="-626.2" font-family="Noto Sans CJK SC" font-size="11.00" fill="#b5701f">价值线（核心）</text>
</g>
<g id="clust6" class="cluster">
<title>cluster_b3</title>
<path fill="white" stroke="#9b7cb8" stroke-width="1.4" stroke-dasharray="5,2" d="M60,-397C60,-397 256,-397 256,-397 262,-397 268,-403 268,-409 268,-409 268,-534 268,-534 268,-540 262,-546 256,-546 256,-546 60,-546 60,-546 54,-546 48,-540 48,-534 48,-534 48,-409 48,-409 48,-403 54,-397 60,-397"/>
<text text-anchor="middle" x="158" y="-533.2" font-family="Noto Sans CJK SC" font-size="11.00" fill="#7a5c99">检测线</text>
</g>
<g id="clust7" class="cluster">
<title>cluster_dec</title>
<path fill="#fbeeee" stroke="#a5443b" d="M58,-190C58,-190 321,-190 321,-190 327,-190 333,-196 333,-202 333,-202 333,-350 333,-350 333,-356 327,-362 321,-362 321,-362 58,-362 58,-362 52,-362 46,-356 46,-350 46,-350 46,-202 46,-202 46,-196 52,-190 58,-190"/>
<text text-anchor="middle" x="189.5" y="-347.6" font-family="Noto Sans CJK SC" font-size="13.00">③ 决策（状态机）</text>
</g>
<g id="clust9" class="cluster">
<title>cluster_low</title>
<path fill="#efefef" stroke="#666666" d="M60,-8C60,-8 253,-8 253,-8 259,-8 265,-14 265,-20 265,-20 265,-147 265,-147 265,-153 259,-159 253,-159 253,-159 60,-159 60,-159 54,-159 48,-153 48,-147 48,-147 48,-20 48,-20 48,-14 54,-8 60,-8"/>
<text text-anchor="middle" x="156.5" y="-144.6" font-family="Noto Sans CJK SC" font-size="13.00">④ 底层运动（预训练 · 独立模块）</text>
</g>
<!-- depth -->
<g id="node1" class="node">
<title>depth</title>
<path fill="#d6e6f7" stroke="#666666" stroke-width="1.2" d="M656,-827C656,-827 626,-827 626,-827 620,-827 614,-821 614,-815 614,-815 614,-803 614,-803 614,-797 620,-791 626,-791 626,-791 656,-791 656,-791 662,-791 668,-797 668,-803 668,-803 668,-815 668,-815 668,-821 662,-827 656,-827"/>
<text text-anchor="middle" x="641" y="-805.9" font-family="Noto Sans CJK SC" font-size="12.00">深度图</text>
</g>
<!-- pose -->
<g id="node2" class="node">
<title>pose</title>
<path fill="#d6e6f7" stroke="#666666" stroke-width="1.2" d="M544.5,-827C544.5,-827 483.5,-827 483.5,-827 477.5,-827 471.5,-821 471.5,-815 471.5,-815 471.5,-803 471.5,-803 471.5,-797 477.5,-791 483.5,-791 483.5,-791 544.5,-791 544.5,-791 550.5,-791 556.5,-797 556.5,-803 556.5,-803 556.5,-815 556.5,-815 556.5,-821 550.5,-827 544.5,-827"/>
<text text-anchor="middle" x="514" y="-812.4" font-family="Noto Sans CJK SC" font-size="12.00">位姿</text>
<text text-anchor="middle" x="514" y="-799.4" font-family="Noto Sans CJK SC" font-size="12.00">(位置 + 朝向)</text>
</g>
<!-- depth&#45;&gt;pose -->
<!-- geo -->
<g id="node4" class="node">
<title>geo</title>
<path fill="#d9ebd3" stroke="#666666" stroke-width="1.2" d="M248,-704C248,-704 138,-704 138,-704 132,-704 126,-698 126,-692 126,-692 126,-680 126,-680 126,-674 132,-668 138,-668 138,-668 248,-668 248,-668 254,-668 260,-674 260,-680 260,-680 260,-692 260,-692 260,-698 254,-704 248,-704"/>
<text text-anchor="middle" x="193" y="-689.4" font-family="Noto Sans CJK SC" font-size="12.00">几何俯视图</text>
<text text-anchor="middle" x="193" y="-676.4" font-family="Noto Sans CJK SC" font-size="12.00">障碍 / 可通行 / 已探索</text>
</g>
<!-- depth&#45;&gt;geo -->
<g id="edge11" class="edge">
<title>depth&#45;&gt;geo</title>
<path fill="none" stroke="#444444" d="M613.94,-797.66C601.03,-792.91 585.32,-787.36 571,-783 467.95,-751.59 346.98,-722.14 270.17,-704.35"/>
<polygon fill="#444444" stroke="#444444" points="270.63,-700.86 260.1,-702.02 269.06,-707.68 270.63,-700.86"/>
</g>
<!-- rgb -->
<g id="node3" class="node">
<title>rgb</title>
<path fill="#d6e6f7" stroke="#666666" stroke-width="1.2" d="M402,-827C402,-827 346,-827 346,-827 340,-827 334,-821 334,-815 334,-815 334,-803 334,-803 334,-797 340,-791 346,-791 346,-791 402,-791 402,-791 408,-791 414,-797 414,-803 414,-803 414,-815 414,-815 414,-821 408,-827 402,-827"/>
<text text-anchor="middle" x="374" y="-805.9" font-family="Noto Sans CJK SC" font-size="12.00">RGB 彩色图</text>
</g>
<!-- pose&#45;&gt;rgb -->
<!-- pose&#45;&gt;geo -->
<g id="edge12" class="edge">
<title>pose&#45;&gt;geo</title>
<path fill="none" stroke="#444444" d="M471.37,-791.93C413.71,-770.19 310.79,-731.4 247.55,-707.56"/>
<polygon fill="#444444" stroke="#444444" points="248.72,-704.26 238.13,-704.01 246.26,-710.81 248.72,-704.26"/>
</g>
<!-- vlm -->
<g id="node6" class="node">
<title>vlm</title>
<path fill="#fce3c2" stroke="#666666" stroke-width="1.2" d="M445.5,-611C445.5,-611 296.5,-611 296.5,-611 290.5,-611 284.5,-605 284.5,-599 284.5,-599 284.5,-587 284.5,-587 284.5,-581 290.5,-575 296.5,-575 296.5,-575 445.5,-575 445.5,-575 451.5,-575 457.5,-581 457.5,-587 457.5,-587 457.5,-599 457.5,-599 457.5,-605 451.5,-611 445.5,-611"/>
<text text-anchor="middle" x="371" y="-596.4" font-family="Noto Sans CJK SC" font-size="12.00">视觉&#45;语言模型 (BLIP&#45;2)</text>
<text text-anchor="middle" x="371" y="-583.4" font-family="Noto Sans CJK SC" font-size="12.00">目标词 × 画面 → 相关性打分</text>
</g>
<!-- rgb&#45;&gt;vlm -->
<g id="edge9" class="edge">
<title>rgb&#45;&gt;vlm</title>
<path fill="none" stroke="#444444" d="M333.86,-807.04C267.39,-804.51 138.99,-795.31 111,-762 78.12,-722.87 75.75,-684.01 111,-647 123.58,-633.79 257.29,-643.4 275,-639 295.05,-634.02 315.96,-624.76 333.14,-615.93"/>
<polygon fill="#444444" stroke="#444444" points="335.07,-618.87 342.27,-611.09 331.79,-612.68 335.07,-618.87"/>
</g>
<!-- det -->
<g id="node8" class="node">
<title>det</title>
<path fill="#e6daf0" stroke="#666666" stroke-width="1.2" d="M248.5,-518C248.5,-518 67.5,-518 67.5,-518 61.5,-518 55.5,-512 55.5,-506 55.5,-506 55.5,-494 55.5,-494 55.5,-488 61.5,-482 67.5,-482 67.5,-482 248.5,-482 248.5,-482 254.5,-482 260.5,-488 260.5,-494 260.5,-494 260.5,-506 260.5,-506 260.5,-512 254.5,-518 248.5,-518"/>
<text text-anchor="middle" x="158" y="-503.4" font-family="Noto Sans CJK SC" font-size="12.00">检测 + 分割</text>
<text text-anchor="middle" x="158" y="-490.4" font-family="Noto Sans CJK SC" font-size="12.00">(YOLOv7 / GroundingDINO + SAM)</text>
</g>
<!-- rgb&#45;&gt;det -->
<g id="edge10" class="edge">
<title>rgb&#45;&gt;det</title>
<path fill="none" stroke="#444444" d="M391.59,-790.76C435.29,-745.92 540.58,-624.28 473,-554 465.14,-545.82 280.09,-548.39 269,-546 245.66,-540.97 220.93,-531.4 200.75,-522.38"/>
<polygon fill="#444444" stroke="#444444" points="202.07,-519.13 191.53,-518.15 199.16,-525.5 202.07,-519.13"/>
</g>
<!-- frontier -->
<g id="node5" class="node">
<title>frontier</title>
<path fill="#c7e0bc" stroke="#666666" stroke-width="1.2" d="M226,-611C226,-611 140,-611 140,-611 134,-611 128,-605 128,-599 128,-599 128,-587 128,-587 128,-581 134,-575 140,-575 140,-575 226,-575 226,-575 232,-575 238,-581 238,-587 238,-587 238,-599 238,-599 238,-605 232,-611 226,-611"/>
<text text-anchor="middle" x="183" y="-596.4" font-family="Noto Sans CJK SC" font-size="12.00">探索边界 frontier</text>
<text text-anchor="middle" x="183" y="-583.4" font-family="Noto Sans CJK SC" font-size="12.00">(候选探索方向)</text>
</g>
<!-- geo&#45;&gt;frontier -->
<g id="edge3" class="edge">
<title>geo&#45;&gt;frontier</title>
<path fill="none" stroke="#444444" d="M191.12,-667.88C189.68,-654.79 187.67,-636.48 186.01,-621.36"/>
<polygon fill="#444444" stroke="#444444" points="189.44,-620.6 184.87,-611.04 182.49,-621.36 189.44,-620.6"/>
</g>
<!-- geo&#45;&gt;vlm -->
<!-- explore -->
<g id="node11" class="node">
<title>explore</title>
<path fill="#f3d7d3" stroke="#666666" stroke-width="1.2" d="M158,-245C158,-245 66,-245 66,-245 60,-245 54,-239 54,-233 54,-233 54,-210 54,-210 54,-204 60,-198 66,-198 66,-198 158,-198 158,-198 164,-198 170,-204 170,-210 170,-210 170,-233 170,-233 170,-239 164,-245 158,-245"/>
<text text-anchor="middle" x="112" y="-231.4" font-family="Noto Sans CJK SC" font-size="12.00">探索模式</text>
<text text-anchor="middle" x="112" y="-218.4" font-family="Noto Sans CJK SC" font-size="12.00">选价值最高的边界</text>
<text text-anchor="middle" x="112" y="-205.4" font-family="Noto Sans CJK SC" font-size="12.00">(+ 防横跳 / 防绕圈)</text>
</g>
<!-- frontier&#45;&gt;explore -->
<g id="edge13" class="edge">
<title>frontier&#45;&gt;explore</title>
<path fill="none" stroke="#444444" d="M127.6,-587.52C73.74,-579.78 0,-558.66 0,-501 0,-501 0,-501 0,-313 0,-285.28 21.01,-264.6 44.83,-250.05"/>
<polygon fill="#444444" stroke="#444444" points="46.77,-252.98 53.7,-244.97 43.29,-246.9 46.77,-252.98"/>
<text text-anchor="middle" x="20" y="-420.5" font-family="Noto Sans CJK SC" font-size="10.00">候选边界</text>
</g>
<!-- value -->
<g id="node7" class="node">
<title>value</title>
<path fill="#f9d199" stroke="#666666" stroke-width="1.2" d="M438.5,-518C438.5,-518 301.5,-518 301.5,-518 295.5,-518 289.5,-512 289.5,-506 289.5,-506 289.5,-494 289.5,-494 289.5,-488 295.5,-482 301.5,-482 301.5,-482 438.5,-482 438.5,-482 444.5,-482 450.5,-488 450.5,-494 450.5,-494 450.5,-506 450.5,-506 450.5,-512 444.5,-518 438.5,-518"/>
<text text-anchor="middle" x="370" y="-503.4" font-family="Noto Sans CJK SC" font-size="12.00">价值热力图</text>
<text text-anchor="middle" x="370" y="-490.4" font-family="Noto Sans CJK SC" font-size="12.00">扇形投影 + 置信度加权累积</text>
</g>
<!-- vlm&#45;&gt;value -->
<g id="edge4" class="edge">
<title>vlm&#45;&gt;value</title>
<path fill="none" stroke="#444444" d="M370.81,-574.88C370.67,-561.79 370.47,-543.48 370.3,-528.36"/>
<polygon fill="#444444" stroke="#444444" points="373.8,-528 370.19,-518.04 366.8,-528.08 373.8,-528"/>
</g>
<!-- vlm&#45;&gt;det -->
<!-- value&#45;&gt;explore -->
<g id="edge14" class="edge">
<title>value&#45;&gt;explore</title>
<path fill="none" stroke="#444444" d="M358.38,-481.68C343.25,-458.91 316.23,-417.52 295,-381 273.52,-344.04 271.61,-332.88 250,-296 241.71,-281.85 242.83,-275.2 230,-265 225.37,-261.32 203.44,-253.12 179.72,-244.89"/>
<polygon fill="#444444" stroke="#444444" points="180.81,-241.56 170.21,-241.62 178.53,-248.18 180.81,-241.56"/>
<text text-anchor="middle" x="315" y="-373" font-family="Noto Sans CJK SC" font-size="10.00">打分排序</text>
</g>
<!-- objloc -->
<g id="node9" class="node">
<title>objloc</title>
<path fill="#d8c4ec" stroke="#666666" stroke-width="1.2" d="M212.5,-441C212.5,-441 103.5,-441 103.5,-441 97.5,-441 91.5,-435 91.5,-429 91.5,-429 91.5,-417 91.5,-417 91.5,-411 97.5,-405 103.5,-405 103.5,-405 212.5,-405 212.5,-405 218.5,-405 224.5,-411 224.5,-417 224.5,-417 224.5,-429 224.5,-429 224.5,-435 218.5,-441 212.5,-441"/>
<text text-anchor="middle" x="158" y="-426.4" font-family="Noto Sans CJK SC" font-size="12.00">目标 3D 定位</text>
<text text-anchor="middle" x="158" y="-413.4" font-family="Noto Sans CJK SC" font-size="12.00">(检测框 + 深度反投影)</text>
</g>
<!-- det&#45;&gt;objloc -->
<g id="edge5" class="edge">
<title>det&#45;&gt;objloc</title>
<path fill="none" stroke="#444444" d="M158,-481.98C158,-472.94 158,-461.6 158,-451.35"/>
<polygon fill="#444444" stroke="#444444" points="161.5,-451.21 158,-441.21 154.5,-451.21 161.5,-451.21"/>
</g>
<!-- found -->
<g id="node10" class="node">
<title>found</title>
<path fill="#f5cfcb" stroke="#666666" stroke-width="1.2" d="M146.31,-329.28C146.31,-329.28 92.23,-316.72 92.23,-316.72 86.38,-315.36 86.38,-312.64 92.23,-311.28 92.23,-311.28 146.31,-298.72 146.31,-298.72 152.16,-297.36 163.84,-297.36 169.69,-298.72 169.69,-298.72 223.77,-311.28 223.77,-311.28 229.62,-312.64 229.62,-315.36 223.77,-316.72 223.77,-316.72 169.69,-329.28 169.69,-329.28 163.84,-330.64 152.16,-330.64 146.31,-329.28"/>
<text text-anchor="middle" x="158" y="-310.9" font-family="Noto Sans CJK SC" font-size="12.00">已找到目标？</text>
</g>
<!-- objloc&#45;&gt;found -->
<g id="edge15" class="edge">
<title>objloc&#45;&gt;found</title>
<path fill="none" stroke="#444444" d="M158,-404.81C158,-387.96 158,-362.02 158,-342.34"/>
<polygon fill="#444444" stroke="#444444" points="161.5,-342.15 158,-332.15 154.5,-342.15 161.5,-342.15"/>
<text text-anchor="middle" x="178" y="-373" font-family="Noto Sans CJK SC" font-size="10.00">目标坐标</text>
</g>
<!-- found&#45;&gt;explore -->
<g id="edge17" class="edge">
<title>found&#45;&gt;explore</title>
<path fill="none" stroke="#444444" d="M150.2,-297.65C144.18,-285.82 135.66,-269.05 128.19,-254.35"/>
<polygon fill="#444444" stroke="#444444" points="131.12,-252.4 123.47,-245.07 124.88,-255.57 131.12,-252.4"/>
<text text-anchor="middle" x="145" y="-268" font-family="Noto Sans CJK SC" font-size="10.00">否</text>
</g>
<!-- navigate -->
<g id="node12" class="node">
<title>navigate</title>
<path fill="#f3d7d3" stroke="#666666" stroke-width="1.2" d="M312.5,-239.5C312.5,-239.5 211.5,-239.5 211.5,-239.5 205.5,-239.5 199.5,-233.5 199.5,-227.5 199.5,-227.5 199.5,-215.5 199.5,-215.5 199.5,-209.5 205.5,-203.5 211.5,-203.5 211.5,-203.5 312.5,-203.5 312.5,-203.5 318.5,-203.5 324.5,-209.5 324.5,-215.5 324.5,-215.5 324.5,-227.5 324.5,-227.5 324.5,-233.5 318.5,-239.5 312.5,-239.5"/>
<text text-anchor="middle" x="262" y="-224.9" font-family="Noto Sans CJK SC" font-size="12.00">导航模式</text>
<text text-anchor="middle" x="262" y="-211.9" font-family="Noto Sans CJK SC" font-size="12.00">直奔目标，够近即停</text>
</g>
<!-- found&#45;&gt;navigate -->
<g id="edge16" class="edge">
<title>found&#45;&gt;navigate</title>
<path fill="none" stroke="#444444" d="M173.8,-299.25C189.88,-285.26 215.13,-263.29 234.5,-246.43"/>
<polygon fill="#444444" stroke="#444444" points="236.89,-248.99 242.13,-239.79 232.29,-243.71 236.89,-248.99"/>
<text text-anchor="middle" x="218" y="-268" font-family="Noto Sans CJK SC" font-size="10.00">是</text>
</g>
<!-- pointnav -->
<g id="node13" class="node">
<title>pointnav</title>
<path fill="#dddddd" stroke="#666666" stroke-width="1.2" d="M204,-129C204,-129 76,-129 76,-129 70,-129 64,-123 64,-117 64,-117 64,-105 64,-105 64,-99 70,-93 76,-93 76,-93 204,-93 204,-93 210,-93 216,-99 216,-105 216,-105 216,-117 216,-117 216,-123 210,-129 204,-129"/>
<text text-anchor="middle" x="140" y="-114.4" font-family="Noto Sans CJK SC" font-size="12.00">PointNav 策略</text>
<text text-anchor="middle" x="140" y="-101.4" font-family="Noto Sans CJK SC" font-size="12.00">目标点(x,y) → 速度 / 转向</text>
</g>
<!-- explore&#45;&gt;pointnav -->
<g id="edge18" class="edge">
<title>explore&#45;&gt;pointnav</title>
<path fill="none" stroke="#444444" d="M117.87,-197.75C122.29,-180.61 128.37,-157.05 133.04,-138.96"/>
<polygon fill="#444444" stroke="#444444" points="136.5,-139.59 135.61,-129.03 129.72,-137.84 136.5,-139.59"/>
<text text-anchor="middle" x="155.5" y="-170" font-family="Noto Sans CJK SC" font-size="10.00">去最高分边界</text>
</g>
<!-- navigate&#45;&gt;pointnav -->
<g id="edge19" class="edge">
<title>navigate&#45;&gt;pointnav</title>
<path fill="none" stroke="#444444" d="M242.67,-203.31C222.23,-185.13 189.85,-156.33 166.92,-135.94"/>
<polygon fill="#444444" stroke="#444444" points="169.04,-133.14 159.24,-129.11 164.39,-138.37 169.04,-133.14"/>
<text text-anchor="middle" x="231" y="-170" font-family="Noto Sans CJK SC" font-size="10.00">去目标点</text>
</g>
<!-- robot -->
<g id="node14" class="node">
<title>robot</title>
<path fill="#cccccc" stroke="#666666" stroke-width="1.2" d="M166.5,-52C166.5,-52 113.5,-52 113.5,-52 107.5,-52 101.5,-46 101.5,-40 101.5,-40 101.5,-28 101.5,-28 101.5,-22 107.5,-16 113.5,-16 113.5,-16 166.5,-16 166.5,-16 172.5,-16 178.5,-22 178.5,-28 178.5,-28 178.5,-40 178.5,-40 178.5,-46 172.5,-52 166.5,-52"/>
<text text-anchor="middle" x="140" y="-37.4" font-family="Noto Sans CJK SC" font-size="12.00">机器人执行</text>
<text text-anchor="middle" x="140" y="-24.4" font-family="Noto Sans CJK SC" font-size="12.00">前进 / 转向</text>
</g>
<!-- pointnav&#45;&gt;robot -->
<g id="edge8" class="edge">
<title>pointnav&#45;&gt;robot</title>
<path fill="none" stroke="#444444" d="M140,-92.98C140,-83.94 140,-72.6 140,-62.35"/>
<polygon fill="#444444" stroke="#444444" points="143.5,-62.21 140,-52.21 136.5,-62.21 143.5,-62.21"/>
</g>
<!-- robot&#45;&gt;rgb -->
<g id="edge20" class="edge">
<title>robot&#45;&gt;rgb</title>
<path fill="none" stroke="#3b6ea5" stroke-dasharray="5,2" d="M171.73,-52.15C215.26,-77.15 293.39,-127.49 340,-190 412.81,-287.64 493.82,-479.52 511,-567 528.05,-653.81 529.92,-696 471,-762 458.55,-775.95 440.96,-786.03 424.18,-793.13"/>
<polygon fill="#3b6ea5" stroke="#3b6ea5" points="422.45,-790.05 414.43,-796.97 425.02,-796.56 422.45,-790.05"/>
<text text-anchor="middle" x="494.5" y="-420.5" font-family="Noto Sans CJK SC" font-size="10.00" fill="#3b6ea5">下一步循环</text>
</g>
</g>
</svg>
