<?xml version="1.0" encoding="UTF-8" standalone="no"?>
<!DOCTYPE svg PUBLIC "-//W3C//DTD SVG 1.1//EN"
 "http://www.w3.org/Graphics/SVG/1.1/DTD/svg11.dtd">
<!-- Generated by graphviz version 2.43.0 (0)
 -->
<!-- Title: VLFM_RT Pages: 1 -->
<svg width="724pt" height="608pt"
 viewBox="0.00 0.00 724.00 608.00" xmlns="http://www.w3.org/2000/svg" xmlns:xlink="http://www.w3.org/1999/xlink">
<g id="graph0" class="graph" transform="scale(1 1) rotate(0) translate(4 604)">
<title>VLFM_RT</title>
<polygon fill="white" stroke="transparent" points="-4,4 -4,-604 720,-604 720,4 -4,4"/>
<text text-anchor="middle" x="358" y="-584" font-family="Noto Sans CJK SC" font-size="15.00">VLFM 真机(Spot)数据流 · 分工交付接口</text>
<g id="clust1" class="cluster">
<title>cluster_perc</title>
<path fill="#eaf2fb" stroke="#3b6ea5" d="M20,-298C20,-298 376,-298 376,-298 382,-298 388,-304 388,-310 388,-310 388,-555 388,-555 388,-561 382,-567 376,-567 376,-567 20,-567 20,-567 14,-567 8,-561 8,-555 8,-555 8,-310 8,-310 8,-304 14,-298 20,-298"/>
<text text-anchor="middle" x="198" y="-553.4" font-family="Noto Sans CJK SC" font-size="12.00">感知 / 建图组 —— 机身 5 路深度（下面随便 RGBD / LIDAR / SLAM）</text>
</g>
<g id="clust2" class="cluster">
<title>cluster_sem</title>
<path fill="#f6f1f7" stroke="#8a668a" d="M408,-298C408,-298 696,-298 696,-298 702,-298 708,-304 708,-310 708,-310 708,-555 708,-555 708,-561 702,-567 696,-567 696,-567 408,-567 408,-567 402,-567 396,-561 396,-555 396,-555 396,-310 396,-310 396,-304 402,-298 408,-298"/>
<text text-anchor="middle" x="552" y="-553.4" font-family="Noto Sans CJK SC" font-size="12.00">语义 / 检测组 —— 只吃臂上眼 RGB（不碰深度）</text>
</g>
<g id="clust3" class="cluster">
<title>cluster_act</title>
<path fill="#fbeeee" stroke="#a5443b" d="M385,-8C385,-8 523,-8 523,-8 529,-8 535,-14 535,-20 535,-20 535,-255 535,-255 535,-261 529,-267 523,-267 523,-267 385,-267 385,-267 379,-267 373,-261 373,-255 373,-255 373,-20 373,-20 373,-14 379,-8 385,-8"/>
<text text-anchor="middle" x="454" y="-253.4" font-family="Noto Sans CJK SC" font-size="12.00">决策 + 运动组</text>
</g>
<!-- BD -->
<g id="node1" class="node">
<title>BD</title>
<path fill="#d6e6f7" stroke="#666666" stroke-width="1.1" d="M225,-517C225,-517 163,-517 163,-517 157,-517 151,-511 151,-505 151,-505 151,-493 151,-493 151,-487 157,-481 163,-481 163,-481 225,-481 225,-481 231,-481 237,-487 237,-493 237,-493 237,-505 237,-505 237,-511 231,-517 225,-517"/>
<text text-anchor="middle" x="194" y="-502.4" font-family="Noto Sans CJK SC" font-size="12.00">5 路机身深度</text>
<text text-anchor="middle" x="194" y="-489.4" font-family="Noto Sans CJK SC" font-size="12.00">uint16 毫米</text>
</g>
<!-- OBS -->
<g id="node3" class="node">
<title>OBS</title>
<path fill="#f9d199" stroke="#d98a2b" stroke-width="2.2" d="M367.5,-430C367.5,-430 250.5,-430 250.5,-430 244.5,-430 238.5,-424 238.5,-418 238.5,-418 238.5,-395 238.5,-395 238.5,-389 244.5,-383 250.5,-383 250.5,-383 367.5,-383 367.5,-383 373.5,-383 379.5,-389 379.5,-395 379.5,-395 379.5,-418 379.5,-418 379.5,-424 373.5,-430 367.5,-430"/>
<text text-anchor="middle" x="309" y="-416.4" font-family="Noto Sans CJK SC" font-size="12.00">★ 障碍图（缝 A）</text>
<text text-anchor="middle" x="309" y="-403.4" font-family="Noto Sans CJK SC" font-size="12.00">2D 0/1 俯视栅格</text>
<text text-anchor="middle" x="309" y="-390.4" font-family="Noto Sans CJK SC" font-size="12.00">1000×1000 · 5cm/格</text>
</g>
<!-- BD&#45;&gt;OBS -->
<g id="edge1" class="edge">
<title>BD&#45;&gt;OBS</title>
<path fill="none" stroke="#555555" d="M215.63,-480.98C231.5,-468.49 253.44,-451.22 272.06,-436.57"/>
<polygon fill="#555555" stroke="#555555" points="274.39,-439.19 280.08,-430.26 270.06,-433.69 274.39,-439.19"/>
</g>
<!-- POSE -->
<g id="node2" class="node">
<title>POSE</title>
<path fill="#d6e6f7" stroke="#666666" stroke-width="1.1" d="M367.5,-517C367.5,-517 274.5,-517 274.5,-517 268.5,-517 262.5,-511 262.5,-505 262.5,-505 262.5,-493 262.5,-493 262.5,-487 268.5,-481 274.5,-481 274.5,-481 367.5,-481 367.5,-481 373.5,-481 379.5,-487 379.5,-493 379.5,-493 379.5,-505 379.5,-505 379.5,-511 373.5,-517 367.5,-517"/>
<text text-anchor="middle" x="321" y="-502.4" font-family="Noto Sans CJK SC" font-size="12.00">位姿 tf</text>
<text text-anchor="middle" x="321" y="-489.4" font-family="Noto Sans CJK SC" font-size="12.00">global → episodic</text>
</g>
<!-- POSE&#45;&gt;OBS -->
<g id="edge8" class="edge">
<title>POSE&#45;&gt;OBS</title>
<path fill="none" stroke="#555555" stroke-dasharray="5,2" d="M316.13,-480.81C314.56,-474.62 312.97,-467.54 312,-461 311.02,-454.42 310.36,-447.34 309.91,-440.55"/>
<polygon fill="#555555" stroke="#555555" points="313.38,-440.04 309.36,-430.24 306.39,-440.41 313.38,-440.04"/>
<text text-anchor="middle" x="326.5" y="-453" font-family="Noto Sans CJK SC" font-size="10.00">tf 对齐</text>
</g>
<!-- VAL -->
<g id="node7" class="node">
<title>VAL</title>
<path fill="#f9d199" stroke="#d98a2b" stroke-width="2.2" d="M687.5,-424.5C687.5,-424.5 540.5,-424.5 540.5,-424.5 534.5,-424.5 528.5,-418.5 528.5,-412.5 528.5,-412.5 528.5,-400.5 528.5,-400.5 528.5,-394.5 534.5,-388.5 540.5,-388.5 540.5,-388.5 687.5,-388.5 687.5,-388.5 693.5,-388.5 699.5,-394.5 699.5,-400.5 699.5,-400.5 699.5,-412.5 699.5,-412.5 699.5,-418.5 693.5,-424.5 687.5,-424.5"/>
<text text-anchor="middle" x="614" y="-409.9" font-family="Noto Sans CJK SC" font-size="12.00">★ 价值图</text>
<text text-anchor="middle" x="614" y="-396.9" font-family="Noto Sans CJK SC" font-size="12.00">同坐标系 · 每格语义分 float</text>
</g>
<!-- POSE&#45;&gt;VAL -->
<g id="edge9" class="edge">
<title>POSE&#45;&gt;VAL</title>
<path fill="none" stroke="#555555" stroke-dasharray="5,2" d="M334.61,-480.96C344.17,-470.25 357.9,-457.15 373,-450 431,-422.54 452.89,-441.64 516,-430 521.66,-428.96 527.5,-427.81 533.36,-426.6"/>
<polygon fill="#555555" stroke="#555555" points="534.17,-430 543.23,-424.51 532.72,-423.16 534.17,-430"/>
<text text-anchor="middle" x="387.5" y="-453" font-family="Noto Sans CJK SC" font-size="10.00">tf 对齐</text>
</g>
<!-- FR -->
<g id="node4" class="node">
<title>FR</title>
<path fill="#d9ebd3" stroke="#666666" stroke-width="1.1" d="M352.5,-342C352.5,-342 295.5,-342 295.5,-342 289.5,-342 283.5,-336 283.5,-330 283.5,-330 283.5,-318 283.5,-318 283.5,-312 289.5,-306 295.5,-306 295.5,-306 352.5,-306 352.5,-306 358.5,-306 364.5,-312 364.5,-318 364.5,-318 364.5,-330 364.5,-330 364.5,-336 358.5,-342 352.5,-342"/>
<text text-anchor="middle" x="324" y="-327.4" font-family="Noto Sans CJK SC" font-size="12.00">frontier</text>
<text text-anchor="middle" x="324" y="-314.4" font-family="Noto Sans CJK SC" font-size="12.00">一串 (x,y) 米</text>
</g>
<!-- OBS&#45;&gt;FR -->
<g id="edge2" class="edge">
<title>OBS&#45;&gt;FR</title>
<path fill="none" stroke="#555555" d="M313.26,-382.65C315.05,-373.06 317.14,-361.83 319,-351.85"/>
<polygon fill="#555555" stroke="#555555" points="322.44,-352.49 320.83,-342.02 315.56,-351.21 322.44,-352.49"/>
</g>
<!-- OBS&#45;&gt;VAL -->
<g id="edge10" class="edge">
<title>OBS&#45;&gt;VAL</title>
<path fill="none" stroke="#d98a2b" stroke-width="1.6" stroke-dasharray="5,2" d="M348.98,-430.18C366.47,-439.23 387.61,-448.45 408,-453 447.91,-461.91 459.88,-460.87 500,-453 524.19,-448.26 549.73,-438.35 570.48,-428.89"/>
<polygon fill="#d98a2b" stroke="#d98a2b" stroke-width="1.6" points="572.08,-432.01 579.66,-424.6 569.12,-425.67 572.08,-432.01"/>
<text text-anchor="middle" x="454" y="-453" font-family="Noto Sans CJK SC" font-size="10.00" fill="#b5701f">共享 BEV 画布坐标系</text>
</g>
<!-- DEC -->
<g id="node9" class="node">
<title>DEC</title>
<path fill="#f5cfcb" stroke="#666666" stroke-width="1.1" d="M442.41,-213.89C442.41,-213.89 398.52,-202.11 398.52,-202.11 392.73,-200.56 392.73,-197.44 398.52,-195.89 398.52,-195.89 442.41,-184.11 442.41,-184.11 448.21,-182.56 459.79,-182.56 465.59,-184.11 465.59,-184.11 509.48,-195.89 509.48,-195.89 515.27,-197.44 515.27,-200.56 509.48,-202.11 509.48,-202.11 465.59,-213.89 465.59,-213.89 459.79,-215.44 448.21,-215.44 442.41,-213.89"/>
<text text-anchor="middle" x="454" y="-195.9" font-family="Noto Sans CJK SC" font-size="12.00">找到目标？</text>
</g>
<!-- FR&#45;&gt;DEC -->
<g id="edge11" class="edge">
<title>FR&#45;&gt;DEC</title>
<path fill="none" stroke="#555555" d="M342.08,-305.9C365.72,-283.52 407.11,-244.37 432.39,-220.45"/>
<polygon fill="#555555" stroke="#555555" points="434.82,-222.97 439.68,-213.55 430.01,-217.88 434.82,-222.97"/>
<text text-anchor="middle" x="393" y="-278" font-family="Noto Sans CJK SC" font-size="10.00">候选方向</text>
</g>
<!-- HC -->
<g id="node5" class="node">
<title>HC</title>
<path fill="#e6daf0" stroke="#666666" stroke-width="1.1" d="M603,-517C603,-517 517,-517 517,-517 511,-517 505,-511 505,-505 505,-505 505,-493 505,-493 505,-487 511,-481 517,-481 517,-481 603,-481 603,-481 609,-481 615,-487 615,-493 615,-493 615,-505 615,-505 615,-511 609,-517 603,-517"/>
<text text-anchor="middle" x="560" y="-502.4" font-family="Noto Sans CJK SC" font-size="12.00">臂上眼 RGB</text>
<text text-anchor="middle" x="560" y="-489.4" font-family="Noto Sans CJK SC" font-size="12.00">(480,640,3) uint8</text>
</g>
<!-- ZOE -->
<g id="node6" class="node">
<title>ZOE</title>
<path fill="#e6daf0" stroke="#666666" stroke-width="1.1" d="M491.5,-424.5C491.5,-424.5 416.5,-424.5 416.5,-424.5 410.5,-424.5 404.5,-418.5 404.5,-412.5 404.5,-412.5 404.5,-400.5 404.5,-400.5 404.5,-394.5 410.5,-388.5 416.5,-388.5 416.5,-388.5 491.5,-388.5 491.5,-388.5 497.5,-388.5 503.5,-394.5 503.5,-400.5 503.5,-400.5 503.5,-412.5 503.5,-412.5 503.5,-418.5 497.5,-424.5 491.5,-424.5"/>
<text text-anchor="middle" x="454" y="-409.9" font-family="Noto Sans CJK SC" font-size="12.00">ZoeDepth 单目</text>
<text text-anchor="middle" x="454" y="-396.9" font-family="Noto Sans CJK SC" font-size="12.00">给臂上眼补 D</text>
</g>
<!-- HC&#45;&gt;ZOE -->
<g id="edge4" class="edge">
<title>HC&#45;&gt;ZOE</title>
<path fill="none" stroke="#555555" d="M541.18,-480.92C530.88,-471.67 517.84,-460.09 506,-450 498.7,-443.78 490.73,-437.17 483.26,-431.06"/>
<polygon fill="#555555" stroke="#555555" points="485.38,-428.27 475.42,-424.67 480.96,-433.7 485.38,-428.27"/>
</g>
<!-- HC&#45;&gt;VAL -->
<g id="edge3" class="edge">
<title>HC&#45;&gt;VAL</title>
<path fill="none" stroke="#555555" d="M570.16,-480.98C578.1,-467.66 589.28,-448.92 598.37,-433.7"/>
<polygon fill="#555555" stroke="#555555" points="601.59,-435.13 603.7,-424.75 595.58,-431.55 601.59,-435.13"/>
</g>
<!-- OBJ -->
<g id="node8" class="node">
<title>OBJ</title>
<path fill="#d8c4ec" stroke="#666666" stroke-width="1.1" d="M469,-342C469,-342 439,-342 439,-342 433,-342 427,-336 427,-330 427,-330 427,-318 427,-318 427,-312 433,-306 439,-306 439,-306 469,-306 469,-306 475,-306 481,-312 481,-318 481,-318 481,-330 481,-330 481,-336 475,-342 469,-342"/>
<text text-anchor="middle" x="454" y="-327.4" font-family="Noto Sans CJK SC" font-size="12.00">目标点</text>
<text text-anchor="middle" x="454" y="-314.4" font-family="Noto Sans CJK SC" font-size="12.00">(x,y) 米</text>
</g>
<!-- ZOE&#45;&gt;OBJ -->
<g id="edge5" class="edge">
<title>ZOE&#45;&gt;OBJ</title>
<path fill="none" stroke="#555555" d="M454,-388.43C454,-377.97 454,-364.34 454,-352.4"/>
<polygon fill="#555555" stroke="#555555" points="457.5,-352.05 454,-342.05 450.5,-352.05 457.5,-352.05"/>
</g>
<!-- VAL&#45;&gt;DEC -->
<g id="edge12" class="edge">
<title>VAL&#45;&gt;DEC</title>
<path fill="none" stroke="#555555" d="M600.63,-388.33C571.74,-351.23 503.5,-263.58 471.34,-222.27"/>
<polygon fill="#555555" stroke="#555555" points="473.96,-219.94 465.05,-214.2 468.44,-224.24 473.96,-219.94"/>
<text text-anchor="middle" x="573" y="-321.5" font-family="Noto Sans CJK SC" font-size="10.00">打分</text>
</g>
<!-- OBJ&#45;&gt;DEC -->
<g id="edge13" class="edge">
<title>OBJ&#45;&gt;DEC</title>
<path fill="none" stroke="#555555" d="M454,-305.9C454,-285.63 454,-251.6 454,-227.59"/>
<polygon fill="#555555" stroke="#555555" points="457.5,-227.35 454,-217.35 450.5,-227.35 457.5,-227.35"/>
<text text-anchor="middle" x="470.5" y="-278" font-family="Noto Sans CJK SC" font-size="10.00">目标 xy</text>
</g>
<!-- PN -->
<g id="node10" class="node">
<title>PN</title>
<path fill="#f3d7d3" stroke="#666666" stroke-width="1.1" d="M509,-140C509,-140 399,-140 399,-140 393,-140 387,-134 387,-128 387,-128 387,-105 387,-105 387,-99 393,-93 399,-93 399,-93 509,-93 509,-93 515,-93 521,-99 521,-105 521,-105 521,-128 521,-128 521,-134 515,-140 509,-140"/>
<text text-anchor="middle" x="454" y="-126.4" font-family="Noto Sans CJK SC" font-size="12.00">PointNav 网络头</text>
<text text-anchor="middle" x="454" y="-113.4" font-family="Noto Sans CJK SC" font-size="12.00">GaussianNet(2)+tanh</text>
<text text-anchor="middle" x="454" y="-100.4" font-family="Noto Sans CJK SC" font-size="12.00">→ (1,2) float [&#45;1,1]</text>
</g>
<!-- DEC&#45;&gt;PN -->
<g id="edge6" class="edge">
<title>DEC&#45;&gt;PN</title>
<path fill="none" stroke="#555555" d="M454,-180.93C454,-172 454,-160.76 454,-150.23"/>
<polygon fill="#555555" stroke="#555555" points="457.5,-150.05 454,-140.05 450.5,-150.05 457.5,-150.05"/>
</g>
<!-- ACT -->
<g id="node11" class="node">
<title>ACT</title>
<path fill="#f3d7d3" stroke="#666666" stroke-width="1.1" d="M515,-52C515,-52 393,-52 393,-52 387,-52 381,-46 381,-40 381,-40 381,-28 381,-28 381,-22 387,-16 393,-16 393,-16 515,-16 515,-16 521,-16 527,-22 527,-28 527,-28 527,-40 527,-40 527,-46 521,-52 515,-52"/>
<text text-anchor="middle" x="454" y="-37.4" font-family="Noto Sans CJK SC" font-size="12.00">set_base_position</text>
<text text-anchor="middle" x="454" y="-24.4" font-family="Noto Sans CJK SC" font-size="12.00">相对位移 ≤ 0.25m / 30°</text>
</g>
<!-- PN&#45;&gt;ACT -->
<g id="edge7" class="edge">
<title>PN&#45;&gt;ACT</title>
<path fill="none" stroke="#555555" d="M454,-92.65C454,-83.16 454,-72.07 454,-62.17"/>
<polygon fill="#555555" stroke="#555555" points="457.5,-62.02 454,-52.02 450.5,-62.02 457.5,-62.02"/>
</g>
</g>
</svg>
